<?xml version="1.0" standalone="no"?>
<!DOCTYPE svg PUBLIC "-//W3C//DTD SVG 20010904//EN"
"http://www.w3.org/TR/2001/REC-SVG-20010904/DTD/svg10.dtd">
<svg version="1.0" xmlns="http://www.w3.org/2000/svg"
width="498.000000pt" height="654.000000pt" viewBox="0 0 498.000000 654.000000"
preserveAspectRatio="xMidYMid meet">

<g transform="translate(0.000000,654.000000) scale(0.100000,-0.100000)"
fill="#000000" stroke="none">
<path d="M1930 6470 c-1160 -5 -1165 -6 -1243 -27 -239 -68 -445 -230 -543
-427 -24 -50 -54 -122 -65 -161 -20 -69 -20 -90 -19 -2050 0 -1623 -2 -2011
-14 -2152 -17 -203 -9 -295 34 -425 41 -122 80 -195 145 -272 86 -101 234
-198 324 -212 l41 -7 0 99 -1 99 -82 60 c-99 73 -150 137 -217 274 -59 119
-73 179 -73 306 0 121 16 192 69 305 52 110 106 171 229 258 l80 57 100 -1
c55 0 440 -4 855 -9 1212 -14 2838 -12 2880 2 l35 13 0 602 c0 332 1 666 3
743 2 77 0 607 -3 1177 -5 743 -4 1113 5 1304 11 257 11 268 -8 293 -25 34
-108 84 -207 124 l-80 32 -540 0 c-297 1 -1064 -2 -1705 -5z m920 -228 c122
-26 235 -67 363 -134 141 -74 198 -114 302 -211 192 -180 328 -405 390 -650
47 -186 50 -292 11 -352 -47 -72 -149 -85 -209 -27 -31 30 -34 31 -77 21 -26
-7 -100 -9 -176 -6 l-132 5 -28 -29 c-31 -32 -73 -49 -128 -51 -30 -1 -44 6
-76 37 -42 41 -48 54 -75 175 -49 214 -194 345 -410 370 -256 28 -429 -88
-443 -297 -11 -164 86 -251 350 -314 310 -74 653 -187 821 -270 141 -70 357
-252 431 -364 140 -209 188 -365 187 -602 0 -205 -23 -312 -101 -480 -53 -114
-118 -201 -235 -318 -168 -169 -325 -265 -550 -338 -280 -90 -532 -106 -804
-51 -395 81 -799 373 -976 706 -53 100 -115 314 -115 397 0 104 62 165 159
158 77 -6 107 -40 116 -134 8 -86 47 -228 81 -296 65 -128 181 -265 299 -354
123 -93 352 -191 530 -228 125 -26 345 -24 469 4 235 54 416 148 582 304 116
108 225 304 260 467 19 88 18 280 -1 355 -42 160 -101 262 -226 386 -87 87
-107 101 -217 156 -131 66 -325 132 -682 232 -337 95 -389 119 -510 240 -52
51 -87 97 -108 140 -29 58 -32 73 -32 155 1 203 59 337 196 450 134 111 275
159 464 159 215 1 382 -72 540 -234 78 -81 128 -161 176 -287 l36 -92 137 6
c75 3 156 7 181 7 l45 2 -3 40 c-6 74 -42 205 -76 279 -62 136 -193 300 -321
402 -74 59 -266 158 -375 194 -141 46 -353 62 -530 39 -272 -34 -560 -195
-709 -398 -152 -207 -212 -415 -190 -661 22 -253 139 -448 349 -582 136 -87
217 -117 650 -242 366 -105 377 -109 475 -157 201 -99 315 -252 315 -420 0
-77 -27 -204 -55 -259 -63 -122 -209 -250 -343 -300 -178 -67 -304 -72 -482
-21 -124 36 -184 63 -270 121 -61 42 -178 160 -213 218 -42 68 -97 209 -97
250 0 76 77 152 156 152 77 0 114 -50 145 -200 21 -100 112 -212 219 -269 237
-127 535 -43 638 179 87 188 -11 308 -318 389 -41 11 -137 36 -212 55 -75 20
-149 41 -163 46 -14 5 -82 26 -150 45 -160 45 -249 81 -360 145 -132 76 -202
129 -280 211 -124 131 -203 266 -240 414 -83 325 -40 636 125 910 172 284 477
507 820 598 136 37 124 36 365 32 171 -3 241 -8 315 -23z m-2223 -2048 c3
-1035 3 -1894 -1 -1908 -5 -20 -14 -27 -44 -32 -20 -3 -65 -12 -99 -18 -73
-15 -67 -22 -85 101 -10 69 -13 407 -13 1545 l0 1456 -35 -14 c-19 -8 -63 -31
-98 -49 -34 -19 -68 -35 -75 -35 -26 0 -50 63 -54 140 -5 99 5 116 89 152 38
16 97 44 132 64 61 33 64 37 56 60 -15 38 -12 334 3 363 8 17 42 38 107 67
l95 42 8 -27 c5 -14 11 -873 14 -1907z"/>
<path d="M4716 6025 c-22 -8 -50 -24 -63 -38 l-24 -23 2 -1045 c2 -2267 -2
-2832 -23 -2872 -17 -33 -81 -98 -111 -114 -72 -37 -126 -45 -256 -38 -69 4
-324 8 -566 10 -242 2 -683 8 -980 15 -393 8 -638 9 -900 1 -265 -8 -401 -8
-515 1 -111 8 -220 8 -380 1 -197 -8 -231 -12 -274 -32 -73 -32 -113 -66 -140
-120 -45 -87 -59 -155 -54 -265 3 -88 8 -110 36 -169 38 -81 69 -127 86 -127
7 0 23 42 39 106 21 81 38 125 74 182 61 98 71 102 262 102 91 0 180 6 228 15
163 31 275 14 346 -53 63 -60 144 -267 135 -346 l-5 -43 191 -5 c360 -10 2559
-2 2586 9 24 10 25 14 25 99 l0 89 -865 -2 c-476 -1 -1086 1 -1357 4 l-492 5
-16 25 c-9 14 -19 49 -22 79 l-6 54 39 16 c35 15 163 17 1349 19 l1310 3 25
33 c40 53 82 90 95 85 8 -3 17 16 25 52 27 124 49 155 120 167 74 12 110 27
181 73 41 27 79 55 85 63 8 10 12 545 15 1961 l4 1946 -25 27 c-28 31 -94 65
-125 64 -11 0 -38 -6 -59 -14z"/>
<path d="M4615 1583 c-22 -8 -53 -18 -70 -22 -27 -6 -31 -12 -36 -51 -3 -25
-9 -61 -13 -80 -7 -34 -6 -36 36 -55 40 -18 45 -25 66 -90 15 -44 24 -97 25
-143 2 -74 2 -74 -35 -106 -51 -44 -117 -75 -185 -86 -35 -6 -609 -10 -1424
-10 l-1367 0 -6 -67 c-4 -38 -9 -86 -12 -109 l-6 -41 49 -6 c89 -11 2728 -8
2780 3 166 36 377 159 442 257 57 86 74 147 73 260 0 57 -5 118 -11 136 -16
49 -219 229 -255 226 -6 0 -29 -7 -51 -16z"/>
<path d="M815 1373 c-16 -2 -44 -6 -61 -8 l-31 -5 -7 -203 c-4 -111 -14 -272
-22 -357 -20 -216 -36 -664 -24 -694 12 -31 45 -49 76 -42 13 4 85 65 160 136
102 97 142 130 161 130 20 0 56 -31 157 -133 72 -74 141 -139 153 -146 29 -15
84 7 108 42 14 22 14 37 0 168 -23 216 -38 618 -32 847 4 113 2 214 -3 227 -6
16 -22 27 -47 34 -35 10 -514 13 -588 4z"/>
</g>
</svg>
